<svg viewBox="0 0 16 16" xmlns="http://www.w3.org/2000/svg" aria-hidden="true" role="presentation" focusable="false" style="height: 22px; width: 22px; fill: currentcolor;"><path d="M8 0c.908 0 1.734.388 2.33 1.083.193.226.33.434.498.732l.104.19.236.448.872 1.7a172.87 172.87 0 0 1 1.989 4.066l.71 1.52.356.79.114.28.049.132c.224.63.294 1.24.204 1.869a3.722 3.722 0 0 1-2.284 2.914 3.827 3.827 0 0 1-1.881.25A4.516 4.516 0 0 1 9.59 15.4a6.712 6.712 0 0 1-1.102-.785l-.276-.248L8 14.16l-.213.207a7.77 7.77 0 0 1-.917.745l-.23.151-.232.137a4.516 4.516 0 0 1-1.705.573 3.827 3.827 0 0 1-1.88-.25A3.721 3.721 0 0 1 .537 12.81c-.09-.629-.02-1.24.204-1.869l.049-.132.053-.134.133-.31.994-2.146c.64-1.353 1.306-2.713 1.99-4.065l.689-1.349.418-.8c.219-.406.37-.65.602-.921A3.028 3.028 0 0 1 8 0zm0 1.5a1.53 1.53 0 0 0-1.19.559 3.677 3.677 0 0 0-.422.658l-.182.343-.178.344L5.3 4.831A171.528 171.528 0 0 0 3.327 8.86l-.625 1.338-.354.774c-.077.175-.14.322-.193.472a2.334 2.334 0 0 0-.132 1.153 2.221 2.221 0 0 0 1.362 1.737c.357.145.749.196 1.146.15a3.03 3.03 0 0 0 1.143-.39c.54-.303 1.085-.768 1.7-1.45-.979-1.205-1.567-2.384-1.793-3.373A3.392 3.392 0 0 1 5.516 8c.059-.378.17-.653.375-.952C6.35 6.384 7.137 6.013 8 6.013s1.652.371 2.109 1.037c.205.298.339.64.397 1.019.06.391.038.819-.065 1.271-.226.99-.837 2.1-1.815 3.304.615.682 1.16 1.147 1.7 1.45.39.218.763.346 1.143.39.398.046.788-.005 1.146-.15a2.222 2.222 0 0 0 1.362-1.737 2.33 2.33 0 0 0-.132-1.153 6.807 6.807 0 0 0-.194-.472l-.17-.378-.173-.375-.635-1.359A171.369 171.369 0 0 0 10.7 4.83l-.684-1.337-.225-.436-.18-.34a3.66 3.66 0 0 0-.422-.658A1.53 1.53 0 0 0 8 1.5zm0 6c-.667 0-1 .35-1 1.05 0 .7.333 1.517 1 2.45.667-.933 1-1.75 1-2.45 0-.7-.333-1.05-1-1.05z"></path></svg>