<svg xmlns="http://www.w3.org/2000/svg" viewBox="0 0 44 32" aria-label="마스터카드" role="img" focusable="false" style="display: block; width: 33px;"><g fill="none" fill-rule="evenodd"><path fill="#F26122" fill-rule="nonzero" d="M17.447 9.124L26.579 9.124 26.579 23.798 17.447 23.798z"></path><path fill="#EA1D25" fill-rule="nonzero" d="M21.974 23.798a9.536 9.536 0 0 1-5.843 1.998c-2.539-.025-4.96-1.018-6.736-2.761-1.777-1.757-2.763-4.111-2.737-6.568-.026-2.456.96-4.81 2.737-6.567 1.776-1.756 4.197-2.75 6.736-2.762 2.132 0 4.185.7 5.843 1.998-2.277 1.795-3.606 4.493-3.606 7.331 0 2.851 1.33 5.537 3.606 7.331z"></path><path fill="#F69E1E" fill-rule="nonzero" d="M37.316 16.454c.026 2.457-.96 4.811-2.737 6.568-1.776 1.756-4.197 2.749-6.737 2.762-2.131 0-4.184-.7-5.842-1.998 2.276-1.795 3.605-4.493 3.605-7.332 0-2.85-1.329-5.536-3.605-7.33a9.535 9.535 0 0 1 5.842-1.999c2.54.026 4.96 1.019 6.737 2.762a9.07 9.07 0 0 1 2.737 6.567z"></path><path fill="#B0B0B0" d="M2.036 1C1.468 1 1 1.466 1 2.05v27.9c0 .584.468 1.05 1.036 1.05h39.928c.568 0 1.036-.466 1.036-1.05V2.05C43 1.466 42.532 1 41.964 1H2.036zM0 2.05C0 .922.907 0 2.036 0h39.928C43.093 0 44 .922 44 2.05v27.9c0 1.128-.907 2.05-2.036 2.05H2.036A2.043 2.043 0 0 1 0 29.95V2.05z"></path></g></svg>